<svg xmlns="http://www.w3.org/2000/svg" version="1.1" xmlns:xlink="http://www.w3.org/1999/xlink" xmlns:svgjs="http://svgjs.dev/svgjs" width="1920" height="560" preserveAspectRatio="none" viewBox="0 0 1920 560"><g mask="url(&quot;#SvgjsMask1004&quot;)" fill="none"><rect width="1920" height="560" x="0" y="0" fill="#0e2a47"></rect><path d="M 0,47 C 76.8,78.2 230.4,210 384,203 C 537.6,196 614.4,12 768,12 C 921.6,12 998.4,203 1152,203 C 1305.6,203 1382.4,16.4 1536,12 C 1689.6,7.6 1843.2,147.2 1920,181L1920 560L0 560z" fill="#184a7e"></path><path d="M 0,320 C 128,361 384,518.4 640,525 C 896,531.6 1024,355.6 1280,353 C 1536,350.4 1792,480.2 1920,512L1920 560L0 560z" fill="#2264ab"></path></g><defs><mask id="SvgjsMask1004"><rect width="1920" height="560" fill="#ffffff"></rect></mask></defs></svg>